<svg width="18" height="18" viewBox="0 0 18 18" fill="none" xmlns="http://www.w3.org/2000/svg">
<path d="M16.4423 15.2967H15.2185V7.60556C15.2163 7.07407 15.0036 6.56508 14.627 6.19003C14.2504 5.81498 13.7405 5.60441 13.209 5.60441H11.4312C10.9004 5.60441 10.3914 5.81525 10.0161 6.19053C9.64084 6.56582 9.43 7.07483 9.43 7.60556V15.2967H8.17308V3.47095C8.17092 2.9423 7.96052 2.4358 7.58749 2.06122C7.21445 1.68663 6.70882 1.47414 6.18019 1.46979H4.40231C4.13812 1.46761 3.87612 1.51776 3.63142 1.61735C3.38672 1.71694 3.16415 1.864 2.97657 2.05004C2.789 2.23608 2.64011 2.45743 2.53851 2.7013C2.43691 2.94518 2.38461 3.20676 2.38462 3.47095V15.2967H1.55769C1.39321 15.2967 1.23546 15.3621 1.11915 15.4784C1.00284 15.5947 0.9375 15.7524 0.9375 15.9169C0.9375 16.0814 1.00284 16.2391 1.11915 16.3555C1.23546 16.4718 1.39321 16.5371 1.55769 16.5371H16.4423C16.6068 16.5371 16.7645 16.4718 16.8809 16.3555C16.9972 16.2391 17.0625 16.0814 17.0625 15.9169C17.0625 15.7524 16.9972 15.5947 16.8809 15.4784C16.7645 15.3621 16.6068 15.2967 16.4423 15.2967ZM3.60846 15.2967V3.47095C3.60846 3.26918 3.68861 3.07568 3.83129 2.933C3.97396 2.79033 4.16746 2.71018 4.36923 2.71018H6.18019C6.38273 2.71017 6.57709 2.79006 6.72108 2.93249C6.86507 3.07493 6.94705 3.26842 6.94923 3.47095V15.2967H3.60846ZM10.6373 15.2967V7.60556C10.6373 7.4038 10.7175 7.21029 10.8601 7.06762C11.0028 6.92495 11.1963 6.84479 11.3981 6.84479H13.176C13.3785 6.84478 13.5729 6.92467 13.7169 7.06711C13.8608 7.20955 13.9428 7.40304 13.945 7.60556V15.2967H10.6373Z" fill="white"/>
</svg>
