<svg width="18" height="18" viewBox="0 0 18 18" fill="none" xmlns="http://www.w3.org/2000/svg">
<path d="M6.49479 16.7708C6.14588 16.768 5.80352 16.6758 5.50035 16.5031L4.25349 15.7764C4.0266 15.6466 3.82788 15.4729 3.66896 15.2653C3.51003 15.0578 3.39408 14.8207 3.3279 14.5678C3.25791 14.3123 3.23945 14.0455 3.2736 13.7829C3.30774 13.5202 3.39381 13.267 3.52678 13.0379L3.86336 12.4642C3.69826 12.2196 3.55003 11.964 3.41969 11.6992H2.73124C2.47005 11.6982 2.21162 11.6458 1.97071 11.5449C1.72979 11.444 1.5111 11.2967 1.32713 11.1113C1.14315 10.9259 0.997498 10.7061 0.898477 10.4644C0.799456 10.2227 0.749008 9.96389 0.750015 9.70271V8.24166C0.752231 7.98642 0.804715 7.73413 0.904467 7.49919C1.00422 7.26424 1.14929 7.05126 1.33138 6.8724C1.51501 6.68871 1.73334 6.54339 1.97367 6.4449C2.21399 6.3464 2.47151 6.2967 2.73124 6.29868H3.40439C3.53569 6.03288 3.68655 5.7772 3.85571 5.53373L3.51913 4.92942C3.38939 4.70192 3.30622 4.45087 3.27447 4.19089C3.24273 3.93092 3.26305 3.66723 3.33425 3.41519C3.40545 3.16315 3.5261 2.9278 3.68917 2.72286C3.85224 2.51793 4.05448 2.34749 4.28408 2.2215L5.5386 1.50245C5.76661 1.37476 6.01754 1.29325 6.27706 1.26259C6.53658 1.23193 6.7996 1.25271 7.05108 1.32375C7.30257 1.39479 7.53759 1.5147 7.74271 1.67662C7.94783 1.83853 8.11903 2.03928 8.24652 2.2674L8.57545 2.84111C8.84552 2.82581 9.11623 2.82581 9.3863 2.84111L9.74583 2.2368C9.87664 2.01071 10.0507 1.8126 10.2581 1.65379C10.4655 1.49498 10.7021 1.37857 10.9544 1.31121C11.2096 1.23904 11.4768 1.21946 11.7398 1.25365C12.0028 1.28783 12.2561 1.37508 12.4843 1.5101L13.7312 2.22915C14.1875 2.4931 14.5203 2.92737 14.6565 3.43655C14.7928 3.94573 14.7214 4.48818 14.4579 4.94472L14.129 5.52608C14.3012 5.76903 14.4546 6.02476 14.588 6.29103H15.2764C15.8033 6.29709 16.3064 6.51115 16.6761 6.88657C17.0457 7.26199 17.252 7.76832 17.25 8.2952V9.77156C17.244 10.2958 17.032 10.7966 16.6599 11.1658C16.2878 11.5351 15.7853 11.7432 15.2611 11.7451H14.5803C14.4549 11.9932 14.3144 12.2333 14.1596 12.4642L14.5038 13.0685C14.6315 13.2965 14.713 13.5474 14.7437 13.807C14.7743 14.0665 14.7536 14.3295 14.6825 14.581C14.6115 14.8325 14.4916 15.0675 14.3296 15.2726C14.1677 15.4777 13.967 15.6489 13.7389 15.7764L12.4843 16.4955C12.2566 16.6242 12.0056 16.7065 11.7459 16.7377C11.4861 16.7689 11.2228 16.7484 10.971 16.6772C10.7192 16.6061 10.4841 16.4858 10.279 16.3234C10.074 16.1609 9.90317 15.9594 9.77642 15.7305L9.43985 15.1568C9.15472 15.1797 8.86823 15.1797 8.5831 15.1568L8.23123 15.7535C8.05843 16.0622 7.80642 16.3192 7.50119 16.498C7.19596 16.6768 6.84855 16.771 6.49479 16.7708ZM2.74653 7.47671C2.52458 7.47622 2.31094 7.56112 2.14987 7.71384C2.07184 7.79231 2.01005 7.88541 1.96805 7.98779C1.92605 8.09017 1.90465 8.19984 1.90509 8.3105V9.74861C1.91852 9.95975 2.011 10.1581 2.16411 10.3041C2.31721 10.4501 2.5197 10.5331 2.73124 10.5365H3.78687C3.90015 10.5347 4.01132 10.5674 4.10559 10.6302C4.19986 10.6931 4.27279 10.7831 4.31468 10.8884C4.49299 11.3088 4.72436 11.7047 5.00314 12.0664C5.07147 12.1579 5.11212 12.2671 5.12025 12.381C5.12839 12.4949 5.10367 12.6087 5.04903 12.709L4.52122 13.604C4.41389 13.8001 4.38387 14.0293 4.43707 14.2465C4.49504 14.4599 4.63536 14.6415 4.8272 14.7514L6.07407 15.4781C6.1698 15.5351 6.27617 15.572 6.38666 15.5865C6.49715 15.6009 6.60943 15.5927 6.71662 15.5622C6.93099 15.5024 7.11435 15.3628 7.22914 15.1721L7.75696 14.2542C7.81515 14.1567 7.90026 14.0782 8.00204 14.028C8.10382 13.9778 8.21794 13.958 8.33067 13.9711C8.77272 14.0247 9.21963 14.0247 9.66168 13.9711C9.77398 13.9532 9.88908 13.9699 9.99161 14.0191C10.0941 14.0683 10.1792 14.1477 10.2354 14.2465L10.7556 15.1492C10.8662 15.3428 11.0492 15.4847 11.2644 15.5435C11.4795 15.6023 11.7092 15.5733 11.903 15.4628L13.1499 14.7437C13.2468 14.6908 13.332 14.6187 13.4004 14.532C13.4687 14.4452 13.5188 14.3455 13.5476 14.2389C13.6008 14.0217 13.5708 13.7925 13.4635 13.5963L12.9357 12.6784C12.8741 12.5839 12.8413 12.4736 12.8413 12.3609C12.8413 12.2482 12.8741 12.1379 12.9357 12.0435C13.2048 11.6959 13.4284 11.3155 13.6012 10.9113C13.6389 10.8027 13.7106 10.709 13.8056 10.6443C13.9007 10.5795 14.0141 10.5471 14.129 10.5518H15.1693C15.3891 10.5605 15.6038 10.4844 15.769 10.3391C15.9342 10.1939 16.0372 9.99066 16.0567 9.77156V8.31815C16.0571 8.20749 16.0357 8.09782 15.9937 7.99544C15.9517 7.89305 15.8899 7.79996 15.8119 7.72149C15.7357 7.64196 15.6443 7.57861 15.5431 7.53523C15.4419 7.49186 15.333 7.46935 15.2229 7.46906H14.1749C14.0614 7.46719 13.951 7.43215 13.8572 7.36826C13.7634 7.30437 13.6904 7.21443 13.6471 7.10953C13.4686 6.69231 13.2344 6.30118 12.951 5.94681C12.882 5.85538 12.8416 5.74562 12.8348 5.6313C12.828 5.51699 12.8551 5.40321 12.9127 5.30425L13.4329 4.40161C13.5434 4.20784 13.5724 3.97814 13.5136 3.76298C13.4548 3.54782 13.3129 3.36481 13.1193 3.25418L11.8724 2.50453C11.692 2.40012 11.478 2.36994 11.2757 2.42039C11.0606 2.47882 10.8768 2.61876 10.7632 2.81051L10.2354 3.72845C10.1787 3.82726 10.0938 3.90695 9.99165 3.95736C9.88947 4.00776 9.77461 4.0266 9.66168 4.01148C9.23242 3.95796 8.79818 3.95796 8.36892 4.01148C8.2571 4.02605 8.14349 4.00689 8.04264 3.95647C7.94178 3.90604 7.85829 3.82664 7.80285 3.72845L7.25209 2.81816C7.14003 2.62601 6.95705 2.4855 6.74247 2.42685C6.5279 2.3682 6.29888 2.39609 6.10466 2.50453L4.85015 3.20829C4.65668 3.31907 4.51455 3.5015 4.45444 3.71618C4.39433 3.93086 4.42106 4.16057 4.52887 4.35571L5.04903 5.2813C5.11284 5.3828 5.14278 5.50193 5.13453 5.62153C5.12628 5.74114 5.08028 5.85503 5.00314 5.94681C4.72658 6.29899 4.49529 6.68447 4.31468 7.09423C4.2719 7.19889 4.19877 7.28834 4.10469 7.35105C4.01062 7.41377 3.89992 7.44687 3.78687 7.44611H2.74653V7.47671ZM8.98088 12.0664C8.37571 12.0664 7.78412 11.887 7.28094 11.5507C6.77776 11.2145 6.38558 10.7366 6.15399 10.1775C5.9224 9.61844 5.86181 9.00321 5.97987 8.40967C6.09793 7.81613 6.38935 7.27092 6.81727 6.843C7.24519 6.41508 7.7904 6.12366 8.38394 6.0056C8.97748 5.88754 9.59271 5.94813 10.1518 6.17972C10.7109 6.41131 11.1888 6.80349 11.525 7.30667C11.8612 7.80985 12.0407 8.40144 12.0407 9.00661C12.0407 9.81812 11.7183 10.5964 11.1445 11.1702C10.5707 11.744 9.79239 12.0664 8.98088 12.0664ZM8.98088 7.09423C8.60264 7.09423 8.23291 7.20639 7.91842 7.41652C7.60393 7.62666 7.35882 7.92533 7.21407 8.27477C7.06933 8.62421 7.03146 9.00873 7.10525 9.37969C7.17904 9.75066 7.36117 10.0914 7.62862 10.3589C7.89607 10.6263 8.23683 10.8084 8.60779 10.8822C8.97875 10.956 9.36327 10.9182 9.71271 10.7734C10.0622 10.6287 10.3608 10.3836 10.571 10.0691C10.7811 9.75458 10.8933 9.38484 10.8933 9.00661C10.8933 8.49941 10.6918 8.01299 10.3331 7.65435C9.97449 7.29571 9.48807 7.09423 8.98088 7.09423Z" fill="#70707A"/>
</svg>
