<svg width="32" height="32" viewBox="0 0 32 32" fill="none" xmlns="http://www.w3.org/2000/svg">
<rect width="32" height="32" rx="7" fill="#19488A"/>
<path d="M16 15.25C18.0711 15.25 19.75 16.929 19.75 19V23.5H18.25V19C18.25 17.8017 17.3133 16.8222 16.1322 16.7538L16 16.75C14.8017 16.75 13.8223 17.6867 13.7538 18.8678L13.75 19V23.5H12.25V19C12.25 16.929 13.9289 15.25 16 15.25ZM11.125 17.5C11.3341 17.5 11.5376 17.5245 11.7326 17.5707C11.6065 17.9455 11.529 18.3415 11.5067 18.752L11.5 19L11.5005 19.0642C11.4157 19.0342 11.3262 19.014 11.2333 19.0052L11.125 19C10.5402 19 10.0597 19.4462 10.0052 20.0166L10 20.125V23.5H8.5V20.125C8.5 18.6753 9.67525 17.5 11.125 17.5ZM20.875 17.5C22.3248 17.5 23.5 18.6753 23.5 20.125V23.5H22V20.125C22 19.5402 21.5538 19.0597 20.9834 19.0052L20.875 19C20.7436 19 20.6175 19.0225 20.5002 19.0639L20.5 19C20.5 18.5007 20.4187 18.0205 20.2686 17.5717C20.4624 17.5245 20.6658 17.5 20.875 17.5ZM11.125 13C12.1605 13 13 13.8395 13 14.875C13 15.9105 12.1605 16.75 11.125 16.75C10.0895 16.75 9.25 15.9105 9.25 14.875C9.25 13.8395 10.0895 13 11.125 13ZM20.875 13C21.9105 13 22.75 13.8395 22.75 14.875C22.75 15.9105 21.9105 16.75 20.875 16.75C19.8395 16.75 19 15.9105 19 14.875C19 13.8395 19.8395 13 20.875 13ZM11.125 14.5C10.9179 14.5 10.75 14.6679 10.75 14.875C10.75 15.0821 10.9179 15.25 11.125 15.25C11.3321 15.25 11.5 15.0821 11.5 14.875C11.5 14.6679 11.3321 14.5 11.125 14.5ZM20.875 14.5C20.6679 14.5 20.5 14.6679 20.5 14.875C20.5 15.0821 20.6679 15.25 20.875 15.25C21.0821 15.25 21.25 15.0821 21.25 14.875C21.25 14.6679 21.0821 14.5 20.875 14.5ZM16 8.5C17.6568 8.5 19 9.84315 19 11.5C19 13.1569 17.6568 14.5 16 14.5C14.3431 14.5 13 13.1569 13 11.5C13 9.84315 14.3431 8.5 16 8.5ZM16 10C15.1716 10 14.5 10.6716 14.5 11.5C14.5 12.3284 15.1716 13 16 13C16.8285 13 17.5 12.3284 17.5 11.5C17.5 10.6716 16.8285 10 16 10Z" fill="white"/>
</svg>
